<svg width="154" height="40" viewBox="0 0 154 40" fill="none" xmlns="http://www.w3.org/2000/svg">
<path d="M11.6125 37.532C8.95246 37.532 6.71046 36.962 4.88646 35.822C3.06246 34.6567 1.75779 33.0353 0.972461 30.958L6.21646 27.918C7.28046 30.3753 9.14246 31.604 11.8025 31.604C14.2091 31.604 15.4125 30.882 15.4125 29.438C15.4125 28.6273 15.0198 28.0193 14.2345 27.614C13.4238 27.1327 11.9798 26.6133 9.90246 26.056C7.77446 25.4733 5.97579 24.6373 4.50646 23.548C2.88513 22.2307 2.07446 20.3687 2.07446 17.962C2.07446 15.5047 2.94846 13.5413 4.69646 12.072C6.46979 10.6027 8.57246 9.868 11.0045 9.868C13.1831 9.868 15.1085 10.3873 16.7805 11.426C18.4525 12.4393 19.7698 13.9213 20.7325 15.872L15.6025 18.874C14.6398 16.822 13.1071 15.796 11.0045 15.796C10.1178 15.796 9.42113 15.986 8.91446 16.366C8.40779 16.746 8.15446 17.2273 8.15446 17.81C8.15446 18.4433 8.45846 19.0133 9.06646 19.52C9.72513 20.0267 11.0171 20.5587 12.9425 21.116L15.4125 21.914C16.0458 22.1167 16.7805 22.4587 17.6165 22.94C18.5285 23.396 19.2125 23.89 19.6685 24.422C20.8845 25.7393 21.4925 27.386 21.4925 29.362C21.4925 31.87 20.5805 33.8713 18.7565 35.366C16.9325 36.81 14.5511 37.532 11.6125 37.532ZM34.9254 26.436V31.148H45.5654V37H28.8454V10.4H45.3754V16.252H34.9254V20.66H44.4254V26.436H34.9254ZM75.8063 33.542C73.1209 36.202 69.8529 37.532 66.0023 37.532C62.1516 37.532 58.8836 36.202 56.1983 33.542C53.5129 30.882 52.1703 27.6013 52.1703 23.7C52.1703 19.7987 53.5129 16.518 56.1983 13.858C58.8836 11.198 62.1516 9.868 66.0023 9.868C69.8529 9.868 73.1209 11.198 75.8063 13.858C78.4916 16.518 79.8343 19.7987 79.8343 23.7C79.8343 27.6013 78.4916 30.882 75.8063 33.542ZM58.2503 23.7C58.2503 26.0307 58.9849 27.9307 60.4543 29.4C61.9236 30.8693 63.7729 31.604 66.0023 31.604C68.2063 31.604 70.0429 30.8693 71.5123 29.4C73.0069 27.9053 73.7543 26.0053 73.7543 23.7C73.7543 21.3947 73.0069 19.4947 71.5123 18C70.0429 16.5307 68.2063 15.796 66.0023 15.796C63.7729 15.796 61.9236 16.5307 60.4543 18C58.9849 19.4693 58.2503 21.3693 58.2503 23.7Z" fill="#14161B"/>
<path d="M100.86 18.896C100.02 19.736 98.992 20.156 97.776 20.156C96.56 20.156 95.528 19.736 94.68 18.896C93.84 18.048 93.42 17.016 93.42 15.8C93.42 14.584 93.84 13.556 94.68 12.716C95.528 11.868 96.56 11.444 97.776 11.444C98.992 11.444 100.02 11.868 100.86 12.716C101.708 13.556 102.132 14.584 102.132 15.8C102.132 17.016 101.708 18.048 100.86 18.896ZM95.652 17.96C96.236 18.528 96.944 18.812 97.776 18.812C98.616 18.812 99.32 18.528 99.888 17.96C100.464 17.384 100.752 16.664 100.752 15.8C100.752 14.936 100.464 14.22 99.888 13.652C99.32 13.076 98.616 12.788 97.776 12.788C96.936 12.788 96.228 13.076 95.652 13.652C95.084 14.22 94.8 14.936 94.8 15.8C94.8 16.656 95.084 17.376 95.652 17.96ZM107.391 11.6H110.487C111.279 11.6 111.939 11.864 112.467 12.392C113.003 12.92 113.271 13.576 113.271 14.36C113.271 15.136 113.003 15.792 112.467 16.328C111.939 16.856 111.279 17.12 110.487 17.12H108.771V20H107.391V11.6ZM108.771 15.824H110.487C110.895 15.824 111.231 15.688 111.495 15.416C111.759 15.136 111.891 14.784 111.891 14.36C111.891 13.936 111.759 13.588 111.495 13.316C111.231 13.036 110.895 12.896 110.487 12.896H108.771V15.824ZM117.633 11.6H123.753V12.92H121.389V20H120.009V12.92H117.633V11.6ZM128.774 20V11.6H130.154V20H128.774ZM142.396 11.6H143.872V20H142.492V14.012L139.936 18.236H139.768L137.212 14V20H135.832V11.6H137.32L139.852 15.8L142.396 11.6ZM149.547 20V11.6H150.927V20H149.547ZM98.94 27.74L95.172 33.68H99.036V35H93.456V33.86L97.224 27.92H93.54V26.6H98.94V27.74ZM111.198 35H109.71L109.122 33.308H105.546L104.958 35H103.458L106.506 26.6H108.162L111.198 35ZM107.334 28.22L106.002 32.012H108.666L107.334 28.22ZM114.844 26.6H120.964V27.92H118.6V35H117.22V27.92H114.844V26.6ZM125.985 35V26.6H127.365V35H125.985ZM140.063 33.896C139.223 34.736 138.195 35.156 136.979 35.156C135.763 35.156 134.731 34.736 133.883 33.896C133.043 33.048 132.623 32.016 132.623 30.8C132.623 29.584 133.043 28.556 133.883 27.716C134.731 26.868 135.763 26.444 136.979 26.444C138.195 26.444 139.223 26.868 140.063 27.716C140.911 28.556 141.335 29.584 141.335 30.8C141.335 32.016 140.911 33.048 140.063 33.896ZM134.855 32.96C135.439 33.528 136.147 33.812 136.979 33.812C137.819 33.812 138.523 33.528 139.091 32.96C139.667 32.384 139.955 31.664 139.955 30.8C139.955 29.936 139.667 29.22 139.091 28.652C138.523 28.076 137.819 27.788 136.979 27.788C136.139 27.788 135.431 28.076 134.855 28.652C134.287 29.22 134.003 29.936 134.003 30.8C134.003 31.656 134.287 32.376 134.855 32.96ZM151.634 32.3V26.6H153.014V35H151.934L147.974 29.3V35H146.594V26.6H147.674L151.634 32.3Z" fill="#14161B"/>
</svg>
